<?xml version="1.0" encoding="UTF-8"?>
<svg version="1.1" xmlns="http://www.w3.org/2000/svg" width="26" height="23">
<path d="M0 0 C1.07507813 -0.00128906 2.15015625 -0.00257812 3.2578125 -0.00390625 C4.38960937 -0.00003906 5.52140625 0.00382812 6.6875 0.0078125 C7.81929687 0.00394531 8.95109375 0.00007813 10.1171875 -0.00390625 C11.19226563 -0.00261719 12.26734375 -0.00132813 13.375 0 C14.86580078 0.00169189 14.86580078 0.00169189 16.38671875 0.00341797 C18.6875 0.1328125 18.6875 0.1328125 19.6875 1.1328125 C19.78731214 3.8101263 19.82629875 6.45585425 19.8125 9.1328125 C19.81830078 10.25816406 19.81830078 10.25816406 19.82421875 11.40625 C19.81411053 17.00620197 19.81411053 17.00620197 18.6875 18.1328125 C17.16821962 18.20461214 15.64582518 18.21673257 14.125 18.1953125 C13.29871094 18.18628906 12.47242187 18.17726563 11.62109375 18.16796875 C10.66396484 18.15056641 10.66396484 18.15056641 9.6875 18.1328125 C9.6875 18.7928125 9.6875 19.4528125 9.6875 20.1328125 C11.0075 20.4628125 12.3275 20.7928125 13.6875 21.1328125 C13.6875 21.7928125 13.6875 22.4528125 13.6875 23.1328125 C9.0675 23.1328125 4.4475 23.1328125 -0.3125 23.1328125 C0.0175 22.1428125 0.3475 21.1528125 0.6875 20.1328125 C1.6775 20.1328125 2.6675 20.1328125 3.6875 20.1328125 C3.6875 19.4728125 3.6875 18.8128125 3.6875 18.1328125 C3.04941406 18.14441406 2.41132813 18.15601562 1.75390625 18.16796875 C0.51447266 18.18150391 0.51447266 18.18150391 -0.75 18.1953125 C-1.98556641 18.21271484 -1.98556641 18.21271484 -3.24609375 18.23046875 C-5.3125 18.1328125 -5.3125 18.1328125 -6.3125 17.1328125 C-6.41231214 14.4554987 -6.45129875 11.80977075 -6.4375 9.1328125 C-6.44136719 8.38257813 -6.44523438 7.63234375 -6.44921875 6.859375 C-6.43761642 0.43168558 -6.33567073 0.00719029 0 0 Z " fill="#1D9DE8" transform="translate(6.3125,-0.1328125)"/>
<path d="M0 0 C1.07507813 -0.00128906 2.15015625 -0.00257812 3.2578125 -0.00390625 C4.38960937 -0.00003906 5.52140625 0.00382812 6.6875 0.0078125 C7.81929687 0.00394531 8.95109375 0.00007813 10.1171875 -0.00390625 C11.19226563 -0.00261719 12.26734375 -0.00132813 13.375 0 C14.86580078 0.00169189 14.86580078 0.00169189 16.38671875 0.00341797 C18.6875 0.1328125 18.6875 0.1328125 19.6875 1.1328125 C19.78731214 3.8101263 19.82629875 6.45585425 19.8125 9.1328125 C19.81830078 10.25816406 19.81830078 10.25816406 19.82421875 11.40625 C19.81411053 17.00620197 19.81411053 17.00620197 18.6875 18.1328125 C17.16821962 18.20461214 15.64582518 18.21673257 14.125 18.1953125 C13.29871094 18.18628906 12.47242187 18.17726563 11.62109375 18.16796875 C10.66396484 18.15056641 10.66396484 18.15056641 9.6875 18.1328125 C9.6875 18.7928125 9.6875 19.4528125 9.6875 20.1328125 C11.0075 20.4628125 12.3275 20.7928125 13.6875 21.1328125 C13.6875 21.7928125 13.6875 22.4528125 13.6875 23.1328125 C9.0675 23.1328125 4.4475 23.1328125 -0.3125 23.1328125 C0.0175 22.1428125 0.3475 21.1528125 0.6875 20.1328125 C1.6775 20.1328125 2.6675 20.1328125 3.6875 20.1328125 C3.6875 19.4728125 3.6875 18.8128125 3.6875 18.1328125 C3.04941406 18.14441406 2.41132813 18.15601562 1.75390625 18.16796875 C0.51447266 18.18150391 0.51447266 18.18150391 -0.75 18.1953125 C-1.98556641 18.21271484 -1.98556641 18.21271484 -3.24609375 18.23046875 C-5.3125 18.1328125 -5.3125 18.1328125 -6.3125 17.1328125 C-6.41231214 14.4554987 -6.45129875 11.80977075 -6.4375 9.1328125 C-6.44136719 8.38257813 -6.44523438 7.63234375 -6.44921875 6.859375 C-6.43761642 0.43168558 -6.33567073 0.00719029 0 0 Z M-4.3125 1.1328125 C-4.3125 6.4128125 -4.3125 11.6928125 -4.3125 17.1328125 C2.9475 17.1328125 10.2075 17.1328125 17.6875 17.1328125 C17.6875 11.8528125 17.6875 6.5728125 17.6875 1.1328125 C10.4275 1.1328125 3.1675 1.1328125 -4.3125 1.1328125 Z " fill="#889FB0" transform="translate(6.3125,-0.1328125)"/>
<path d="M0 0 C0 3.63 0 7.26 0 11 C-7.26 11 -14.52 11 -22 11 C-6.93150685 -1.05479452 -6.93150685 -1.05479452 0 0 Z " fill="#21BADE" transform="translate(24,6)"/>
<path d="M0 0 C1.41623216 -0.05447047 2.83308191 -0.09300508 4.25 -0.125 C5.03890625 -0.14820312 5.8278125 -0.17140625 6.640625 -0.1953125 C9 0 9 0 13 2 C6.565 4.97 6.565 4.97 0 8 C0 5.36 0 2.72 0 0 Z " fill="#1A7DF2" transform="translate(2,1)"/>
<path d="M0 0 C1.98 0 3.96 0 6 0 C6 0.66 6 1.32 6 2 C7.32 2.33 8.64 2.66 10 3 C10 3.66 10 4.32 10 5 C5.38 5 0.76 5 -4 5 C-3.67 4.01 -3.34 3.02 -3 2 C-2.01 2 -1.02 2 0 2 C0 1.34 0 0.68 0 0 Z " fill="#6F7982" transform="translate(10,18)"/>
<path d="M0 0 C4.29 0 8.58 0 13 0 C13 0.33 13 0.66 13 1 C11.948125 1.103125 10.89625 1.20625 9.8125 1.3125 C6.03155982 1.99430888 4.11977228 2.86541896 1 5 C0.175 5.474375 -0.65 5.94875 -1.5 6.4375 C-4.17621142 8.11013213 -6.57169888 9.98797907 -9 12 C-8.78515625 9.67578125 -8.78515625 9.67578125 -8 7 C-5.93359375 5.41796875 -5.93359375 5.41796875 -3.4375 4.1875 C-2.61121094 3.76855469 -1.78492188 3.34960938 -0.93359375 2.91796875 C0.02353516 2.46357422 0.02353516 2.46357422 1 2 C0.67 1.34 0.34 0.68 0 0 Z " fill="#1E8CEC" transform="translate(11,1)"/>
<path d="M0 0 C2.97 0 5.94 0 9 0 C7.02 0.99 7.02 0.99 5 2 C3.31110128 3.3050581 1.6396721 4.63360658 0 6 C0 4.02 0 2.04 0 0 Z " fill="#1D6CF5" transform="translate(2,1)"/>
</svg>
